<svg width="22" height="22" viewBox="0 0 22 22" fill="none" xmlns="http://www.w3.org/2000/svg">
<g clip-path="url(#clip0_4_112)">
<path d="M11 8.25V19.25M11 19.25C9.05508 19.25 7.18982 18.4774 5.81455 17.1021C4.43928 15.7268 3.66667 13.8616 3.66667 11.9167M11 19.25C12.9449 19.25 14.8102 18.4774 16.1855 17.1021C17.5607 15.7268 18.3333 13.8616 18.3333 11.9167M19.25 11.9167H17.4167M4.58333 11.9167H2.75" stroke="#60679F" stroke-width="1.375" stroke-linecap="round" stroke-linejoin="round"/>
<path d="M11 8.25C12.5188 8.25 13.75 7.01878 13.75 5.5C13.75 3.98122 12.5188 2.75 11 2.75C9.48122 2.75 8.25 3.98122 8.25 5.5C8.25 7.01878 9.48122 8.25 11 8.25Z" stroke="#60679F" stroke-width="1.375" stroke-linecap="round" stroke-linejoin="round"/>
</g>
<defs>
<clipPath id="clip0_4_112">
<rect width="22" height="22" fill="white"/>
</clipPath>
</defs>
</svg>
