<svg width="27" height="27" viewBox="0 0 27 27" fill="none" xmlns="http://www.w3.org/2000/svg">
<g id="Frame" clip-path="url(#clip0_4_18)">
<path id="Vector" d="M19.125 12.375H7.875C6.63236 12.375 5.625 13.3824 5.625 14.625V21.375C5.625 22.6176 6.63236 23.625 7.875 23.625H19.125C20.3676 23.625 21.375 22.6176 21.375 21.375V14.625C21.375 13.3824 20.3676 12.375 19.125 12.375Z" stroke="#132B50" stroke-width="1.6875" stroke-linecap="round" stroke-linejoin="round"/>
<path id="Vector_2" d="M13.5 19.125C14.1213 19.125 14.625 18.6213 14.625 18C14.625 17.3787 14.1213 16.875 13.5 16.875C12.8787 16.875 12.375 17.3787 12.375 18C12.375 18.6213 12.8787 19.125 13.5 19.125Z" stroke="#132B50" stroke-width="1.6875" stroke-linecap="round" stroke-linejoin="round"/>
<path id="Vector_3" d="M9 12.375V7.875C9 6.68153 9.47411 5.53693 10.318 4.69302C11.1619 3.84911 12.3065 3.375 13.5 3.375C14.6935 3.375 15.8381 3.84911 16.682 4.69302C17.5259 5.53693 18 6.68153 18 7.875V12.375" stroke="#132B50" stroke-width="1.6875" stroke-linecap="round" stroke-linejoin="round"/>
</g>
<defs>
<clipPath id="clip0_4_18">
<rect width="27" height="27" fill="white"/>
</clipPath>
</defs>
</svg>
