<svg width="34" height="34" viewBox="0 0 34 34" fill="none" xmlns="http://www.w3.org/2000/svg">
<g clip-path="url(#clip0_2_9)">
<path d="M14.1667 7.08333C14.1667 6.33189 14.4652 5.61122 14.9965 5.07986C15.5279 4.54851 16.2485 4.25 17 4.25C17.7514 4.25 18.4721 4.54851 19.0035 5.07986C19.5348 5.61122 19.8333 6.33189 19.8333 7.08333C21.4602 7.85262 22.8471 9.05013 23.8454 10.5475C24.8436 12.0449 25.4156 13.7857 25.5 15.5833V19.8333C25.6066 20.7141 25.9185 21.5575 26.4106 22.2957C26.9028 23.0339 27.5613 23.6462 28.3333 24.0833H5.66666C6.43865 23.6462 7.09722 23.0339 7.58934 22.2957C8.08146 21.5575 8.39338 20.7141 8.49999 19.8333V15.5833C8.58437 13.7857 9.15633 12.0449 10.1546 10.5475C11.1528 9.05013 12.5397 7.85262 14.1667 7.08333" stroke="white" stroke-width="2.125" stroke-linecap="round" stroke-linejoin="round"/>
<path d="M12.75 24.0833V25.5C12.75 26.6271 13.1978 27.7082 13.9948 28.5052C14.7918 29.3022 15.8728 29.75 17 29.75C18.1272 29.75 19.2082 29.3022 20.0052 28.5052C20.8022 27.7082 21.25 26.6271 21.25 25.5V24.0833" stroke="white" stroke-width="2.125" stroke-linecap="round" stroke-linejoin="round"/>
</g>
<defs>
<clipPath id="clip0_2_9">
<rect width="34" height="34" fill="white"/>
</clipPath>
</defs>
</svg>
