<svg width="20" height="19" viewBox="0 0 20 19" fill="none" xmlns="http://www.w3.org/2000/svg">
<g clip-path="url(#clip0_2_21)">
<path d="M15.5625 10.7445L9.625 16.625L3.6875 10.7445C3.29587 10.3634 2.98739 9.90538 2.78148 9.39921C2.57557 8.89303 2.4767 8.34971 2.49109 7.80344C2.50548 7.25718 2.63282 6.71981 2.86509 6.22518C3.09736 5.73055 3.42953 5.28936 3.84068 4.92941C4.25183 4.56946 4.73306 4.29854 5.25406 4.13371C5.77506 3.96888 6.32455 3.91371 6.86792 3.97167C7.41129 4.02964 7.93678 4.19948 8.41128 4.47051C8.88579 4.74153 9.29904 5.10787 9.625 5.54645C9.95239 5.11106 10.3661 4.74792 10.8403 4.47977C11.3145 4.21162 11.8389 4.04423 12.3807 3.98807C12.9226 3.93192 13.4702 3.98822 13.9893 4.15343C14.5084 4.31865 14.9878 4.58923 15.3975 4.94824C15.8072 5.30726 16.1384 5.74697 16.3703 6.23987C16.6023 6.73277 16.73 7.26824 16.7455 7.81277C16.761 8.35729 16.6639 8.89916 16.4604 9.40444C16.2568 9.90973 15.9511 10.3676 15.5625 10.7493" stroke="#2C3E50" stroke-width="1.1875" stroke-linecap="round" stroke-linejoin="round"/>
</g>
<defs>
<clipPath id="clip0_2_21">
<rect width="19" height="19" fill="white" transform="translate(0.125)"/>
</clipPath>
</defs>
</svg>
