<svg width="19" height="20" viewBox="0 0 19 20" fill="none" xmlns="http://www.w3.org/2000/svg">
<g clip-path="url(#clip0_3_65)">
<path d="M14.5 4.99994C12.5 3.39994 10.3333 4.99994 9.5 5.99994L8 4.99994L5.5 4.5L2.5 6.5L2 9L3.5 11L9.5 17L14.5 12L16.5 10V8.5C16.6667 7.99998 16.5 6.59994 14.5 4.99994Z" fill="#0F1B4A"/>
<path d="M15.4375 11.2445L9.5 17.125M9.5 17.125L3.5625 11.2445C3.17087 10.8634 2.86239 10.4054 2.65648 9.89921C2.45057 9.39303 2.3517 8.84971 2.36609 8.30344C2.38048 7.75718 2.50782 7.21981 2.74009 6.72518C2.97236 6.23055 3.30453 5.78936 3.71568 5.42941C4.12683 5.06946 4.60806 4.79854 5.12906 4.63371C5.65006 4.46888 6.19955 4.41371 6.74292 4.47167C7.28629 4.52964 7.81177 4.69948 8.28628 4.97051C8.76079 5.24153 9.17404 5.60787 9.5 6.04645C9.82739 5.61106 10.2411 5.24792 10.7153 4.97977C11.1895 4.71162 11.7139 4.54423 12.2557 4.48807C12.7976 4.43192 13.3452 4.48822 13.8643 4.65343C14.3834 4.81865 14.8628 5.08923 15.2725 5.44824C15.6822 5.80726 16.0134 6.24697 16.2453 6.73987C16.4773 7.23277 16.605 7.76824 16.6205 8.31277C16.636 8.85729 16.5389 9.39916 16.3354 9.90444C16.1318 10.4097 15.8261 10.8676 15.4375 11.2493L9.5 17.125Z" stroke="#0F1B4A" stroke-width="1.1875" stroke-linecap="round" stroke-linejoin="round"/>
</g>
<defs>
<clipPath id="clip0_3_65">
<rect width="19" height="19" fill="white" transform="translate(0 0.5)"/>
</clipPath>
</defs>
</svg>
